<svg width="120" height="120" viewBox="0 0 120 120" fill="none" xmlns="http://www.w3.org/2000/svg">
  <defs>
    <linearGradient id="businessGrad" x1="0%" y1="0%" x2="100%" y2="100%">
      <stop offset="0%" style="stop-color:#A78BFA;stop-opacity:1" />
      <stop offset="100%" style="stop-color:#7C3AED;stop-opacity:1" />
    </linearGradient>
    <filter id="glow">
      <feGaussianBlur stdDeviation="3" result="coloredBlur"/>
      <feMerge>
        <feMergeNode in="coloredBlur"/>
        <feMergeNode in="SourceGraphic"/>
      </feMerge>
    </filter>
  </defs>
  <!-- Modern Corporate Building -->
  <rect x="14" y="24" width="92" height="76" rx="10" fill="url(#businessGrad)" filter="url(#glow)"/>
  <rect x="14" y="24" width="92" height="20" rx="10" fill="#6D28D9"/>
  <!-- Clean Window Grid -->
  <rect x="26" y="50" width="18" height="18" rx="3.5" fill="white" opacity="0.95"/>
  <rect x="50" y="50" width="18" height="18" rx="3.5" fill="white" opacity="0.95"/>
  <rect x="74" y="50" width="18" height="18" rx="3.5" fill="white" opacity="0.95"/>
  <rect x="26" y="72" width="18" height="18" rx="3.5" fill="white" opacity="0.9"/>
  <rect x="50" y="72" width="18" height="18" rx="3.5" fill="white" opacity="0.9"/>
  <rect x="74" y="72" width="18" height="18" rx="3.5" fill="white" opacity="0.9"/>
  <rect x="26" y="94" width="18" height="18" rx="3.5" fill="white" opacity="0.8"/>
  <rect x="50" y="94" width="18" height="18" rx="3.5" fill="white" opacity="0.8"/>
  <rect x="74" y="94" width="18" height="18" rx="3.5" fill="white" opacity="0.8"/>
  <!-- Modern Roof -->
  <path d="M4 24L60 4L116 24V34H4V24Z" fill="#6D28D9"/>
  <!-- Entrance -->
  <rect x="42" y="88" width="36" height="12" rx="4" fill="white" opacity="0.25"/>
  <circle cx="56" cy="94" r="3" fill="white" opacity="0.5"/>
</svg>
