<svg width="120" height="120" viewBox="0 0 120 120" fill="none" xmlns="http://www.w3.org/2000/svg">
  <defs>
    <linearGradient id="secureGrad" x1="0%" y1="0%" x2="100%" y2="100%">
      <stop offset="0%" style="stop-color:#34D399;stop-opacity:1" />
      <stop offset="100%" style="stop-color:#047857;stop-opacity:1" />
    </linearGradient>
    <filter id="glow">
      <feGaussianBlur stdDeviation="3" result="coloredBlur"/>
      <feMerge>
        <feMergeNode in="coloredBlur"/>
        <feMergeNode in="SourceGraphic"/>
      </feMerge>
    </filter>
  </defs>
  <!-- Shield with Checkmark -->
  <path d="M60 10C60 10 28 18 28 32V60C28 76 44 89 60 102C76 89 92 76 92 60V32C92 18 60 10 60 10Z" fill="url(#secureGrad)" filter="url(#glow)"/>
  <path d="M60 10C60 10 28 18 28 32V40C28 28 44 22 60 36C76 22 92 28 92 40V32C92 18 60 10 60 10Z" fill="#047857"/>
  <!-- Bold Checkmark -->
  <path d="M38 64L48 74L82 40" stroke="white" stroke-width="9" stroke-linecap="round" stroke-linejoin="round" fill="none"/>
  <!-- Security Pattern -->
  <rect x="40" y="24" width="40" height="3" rx="1.5" fill="white" opacity="0.3"/>
</svg>
