<svg xmlns="http://www.w3.org/2000/svg" width="690" height="562" fill="none"><path fill="url(#a)" d="M555.705 339.741v-67.498H441.813v100.671c0 58.455 18.991 98.571 45.896 124.113 27.079 25.707 63.277 37.699 99.389 37.699v12c-76.75 0-156.037-50.585-157.271-170.955l-.014-2.857V260.243h137.892v79.498l.014 1.974c.574 40.86 19.086 66.823 55.245 67.233l.872.005h18.188v137.773h-54.926v-12h42.926V420.953h-6.188c-21.839 0-39.58-8.041-51.521-23.353-11.591-14.862-16.61-35.144-16.61-57.859ZM47.764 195.682c0-121.729 72.415-179.786 180.484-179.786h137.508V143.14H263.42v-12h90.336V27.896H228.248c-51.99 0-93.801 13.951-122.547 40.986-28.619 26.915-45.937 68.351-45.937 126.8v338.73h114.109v-87.637c0-22.615 6.22-41.397 20.945-54.201 14.376-12.5 34.702-17.375 58.677-17.375v12l-2.107.014c-43.898.574-65.515 19.249-65.515 59.562v99.637H47.763v-350.73Zm126.109 11.635c0-24.604 10.637-44.13 27.633-57.195 16.675-12.817 38.822-18.981 61.914-18.981v12l-.987.004c-41.769.35-76.56 22.917-76.56 64.172v52.565h180.052v127.317h-112.43v-12h100.43V271.882H173.873v-64.565ZM567.654 95.779c0-36.995-30.851-67.498-69.401-67.498-38.548 0-69.353 30.428-69.353 67.498 0 37.075 30.762 67.498 69.353 67.498v12l-1.053-.006c-44.116-.546-79.736-35.317-80.294-78.463l-.006-1.029c0-43.964 36.449-79.498 81.353-79.498l1.051.006c44.421.55 80.35 35.943 80.35 79.492l-.006 1.028c-.564 43.419-36.794 78.47-81.395 78.47v-12c38.593 0 69.401-30.498 69.401-67.498Z"/><defs><linearGradient id="a" x1="344.894" x2="344.894" y1="15.896" y2="546.726" gradientUnits="userSpaceOnUse"><stop stop-color="#00B899"/><stop offset="1" stop-color="#077D64"/></linearGradient></defs></svg>